<svg xmlns="http://www.w3.org/2000/svg" width="128" height="128" viewBox="0 0 128 128" fill="none">
  <defs>
    <linearGradient id="goldTrim" x1="0" y1="0" x2="1" y2="1">
      <stop offset="0%" stop-color="#f9e4aa"/>
      <stop offset="100%" stop-color="#b88739"/>
    </linearGradient>
    <linearGradient id="shadowFade" x1="0" y1="0" x2="0" y2="1">
      <stop offset="0%" stop-color="#000" stop-opacity="0.35"/>
      <stop offset="100%" stop-color="#000" stop-opacity="0"/>
    </linearGradient>
    <filter id="softGlow" x="-50%" y="-50%" width="200%" height="200%">
      <feGaussianBlur stdDeviation="4" result="blur"/>
      <feMerge>
        <feMergeNode in="blur"/>
        <feMergeNode in="SourceGraphic"/>
      </feMerge>
    </filter>
  </defs>
  
  
  <ellipse cx="64" cy="120" rx="20" ry="8" fill="#000" fill-opacity="0.24"/>
  <path d="M44 96 H84 L76 112 H52 Z" fill="#6f726d" stroke="#d6cda8" stroke-width="3"/>
  <path d="M52 96 L48 78 H80 L76 96" fill="#3e4f4d"/>
  <path d="M62 80 C54 70, 58 58, 66 48 C74 62, 76 73, 68 84 C66 78, 64 75, 62 80 Z" fill="#ffb349"/>
  <path d="M61 74 C57 67, 60 58, 66 52 C72 60, 70 68, 66 76 C65 72, 63 70, 61 74 Z" fill="#ffe08a"/>

</svg>
