<svg xmlns="http://www.w3.org/2000/svg" width="128" height="128" viewBox="0 0 128 128" fill="none">
  <defs>
    <linearGradient id="goldTrim" x1="0" y1="0" x2="1" y2="1">
      <stop offset="0%" stop-color="#f9e4aa"/>
      <stop offset="100%" stop-color="#b88739"/>
    </linearGradient>
    <linearGradient id="shadowFade" x1="0" y1="0" x2="0" y2="1">
      <stop offset="0%" stop-color="#000" stop-opacity="0.35"/>
      <stop offset="100%" stop-color="#000" stop-opacity="0"/>
    </linearGradient>
    <filter id="softGlow" x="-50%" y="-50%" width="200%" height="200%">
      <feGaussianBlur stdDeviation="4" result="blur"/>
      <feMerge>
        <feMergeNode in="blur"/>
        <feMergeNode in="SourceGraphic"/>
      </feMerge>
    </filter>
  </defs>
  
  
  <ellipse cx="64" cy="120" rx="24" ry="8" fill="#000" fill-opacity="0.24"/>
  <circle cx="42" cy="88" r="10" fill="#d3a65e"/>
  <path d="M36 90 C38 80, 46 76, 52 82" stroke="#fff2d3" stroke-width="3" stroke-linecap="round"/>
  <rect x="40" y="90" width="5" height="18" rx="2.5" fill="#f0e7cd"/>
  <circle cx="66" cy="78" r="12" fill="#d18c49"/>
  <path d="M58 80 C60 68, 70 66, 77 72" stroke="#fff0d0" stroke-width="3" stroke-linecap="round"/>
  <rect x="63" y="80" width="6" height="24" rx="3" fill="#efe6ca"/>
  <circle cx="86" cy="94" r="9" fill="#b86f3c"/>
  <path d="M80 96 C82 87, 89 84, 95 89" stroke="#ffe5c0" stroke-width="3" stroke-linecap="round"/>
  <rect x="84" y="95" width="5" height="16" rx="2.5" fill="#efe6ca"/>
  <circle cx="60" cy="100" r="8" fill="#cf8543"/>
  <rect x="58" y="100" width="4" height="12" rx="2" fill="#f1e6cf"/>

</svg>
